<svg width="50" height="60" viewBox="0 0 50 60" fill="none" xmlns="http://www.w3.org/2000/svg">
<path d="M3.22393 35.3845C3.27765 40.5545 3.01254 45.5408 3.01202 50.7305C3.01202 50.844 3.01209 50.9571 3.01224 51.0697C3.01366 52.1571 3.02189 53.2484 3.03413 54.3365C3.04081 54.8577 3.05798 55.354 3.1166 55.7188C3.12709 55.7973 3.16088 55.8807 3.12523 55.779C3.11747 55.7612 3.0925 55.6946 3.01687 55.5925C2.92912 55.4921 2.85458 55.3532 2.47966 55.2043C2.31038 55.1438 2.11552 55.1255 1.95431 55.1447C1.78258 55.1667 1.71015 55.1967 1.62223 55.2326C1.46323 55.3021 1.37712 55.3809 1.35072 55.4035C1.23543 55.517 1.30564 55.4497 1.3398 55.3795C1.37454 55.3184 1.4321 55.2076 1.47515 55.1176C1.8706 54.2811 2.25834 53.2588 2.68197 52.2801C3.10867 51.2922 3.56304 50.2906 4.1711 49.2932C4.85603 48.3853 5.32119 46.9582 7.66845 46.6654C8.50877 46.6392 9.4741 46.991 10.0951 47.5263C10.7297 48.0542 11.1076 48.6336 11.4265 49.1514C12.32 50.7392 12.9369 51.8412 13.5926 51.7457C13.9519 51.7462 14.143 51.6811 14.4718 51.3777C14.7895 51.0757 15.1193 50.5613 15.4708 49.9867C15.8295 49.4118 16.2086 48.7521 16.8293 48.1115C17.4264 47.4673 18.4544 46.9166 19.4314 46.8957C20.1442 46.8442 21.0853 47.054 21.7268 47.6216C22.3713 48.1762 22.679 48.8465 22.8904 49.4352C23.2929 50.6271 23.3865 51.7119 23.5164 52.7574C23.7472 54.8604 24.0537 57.2853 25.4229 57.1502C26.8035 57.4009 27.2915 55.0286 27.5945 53.01C27.7707 51.9614 27.9155 50.8762 28.3234 49.7615C28.5336 49.2105 28.8251 48.6225 29.3462 48.1492C29.8613 47.6676 30.6138 47.4386 31.2526 47.4545C31.2837 47.4547 31.3149 47.4552 31.3463 47.4562C34.7075 47.7479 35.0482 51.4923 37.2533 51.3629C39.4592 51.6024 40.0707 47.7295 43.1817 47.7673C45.1455 48.1783 45.7218 49.9475 46.4853 51.2742C47.0461 52.3989 47.5173 53.5605 48.016 54.6977C48.1378 54.973 48.2721 55.2692 48.4079 55.531C48.4812 55.6713 48.556 55.8045 48.6331 55.9142C48.6775 55.9764 48.7165 56.0241 48.7577 56.0571C48.8143 56.0821 48.7332 56.0772 48.754 56.0776C48.9563 55.664 48.9381 54.9469 48.9573 54.3365C48.9824 52.4559 49.0043 50.5702 49.0226 48.6896C49.0411 46.7706 49.0559 44.8573 49.0663 42.9397C49.0741 41.511 49.0795 40.0738 49.0824 38.6485C49.0828 38.4432 49.0833 38.2619 49.0835 38.116C49.0837 37.9748 49.0837 37.8991 49.0836 37.8991C49.0836 37.8995 49.0838 37.9758 49.0844 38.1176C49.085 38.264 49.086 38.4456 49.0869 38.6507C49.0935 40.0885 49.1026 41.537 49.1139 42.978C49.1265 44.58 49.1418 46.1807 49.1597 47.7828C49.133 48.035 49.1117 48.3815 49.1019 49.0299C49.097 49.3614 49.0948 49.8442 49.1017 50.1993C49.108 50.5193 49.1193 50.7588 49.1306 50.9877C49.1424 51.2249 49.1542 51.4547 49.1596 51.7442C49.1687 52.2419 49.1886 52.7078 49.2116 53.2048C49.22 53.3813 49.2287 53.57 49.2373 53.7561C49.2402 53.9484 49.2431 54.1462 49.246 54.3365C49.2485 54.5211 49.249 54.691 49.2476 54.8469C49.2461 55.0124 49.2403 55.2036 49.2322 55.3517C49.2193 55.5505 49.2118 55.6734 49.1758 55.8814C49.1603 55.9647 49.1404 56.0593 49.0991 56.1592C49.0747 56.216 48.9741 56.4563 48.7106 56.4132C48.3777 56.2835 48.3596 56.1255 48.2405 55.9764C48.1467 55.8315 48.0585 55.672 47.9821 55.5284C47.8206 55.2226 47.6788 54.9271 47.5321 54.618C47.2871 54.0763 47.0694 53.583 46.8719 53.1674C46.6941 52.7924 46.5206 52.4603 46.3382 52.1331C46.2311 51.9237 46.1219 51.7159 46.0102 51.5109C45.2992 50.2548 44.4116 48.683 43.2243 48.4789C43.2006 48.476 43.1769 48.474 43.1532 48.4729C42.1156 48.381 41.2591 49.181 40.2726 50.4284C39.8169 50.968 39.3046 51.5257 38.6301 51.8669C38.1945 52.0899 37.7087 52.1932 37.2533 52.1887C36.6748 52.1903 36.1233 52.0207 35.6846 51.7713C35.1535 51.4754 34.7271 51.0255 34.3525 50.5861C33.8512 49.9945 33.3983 49.3936 32.8735 49.0385C32.5472 48.8148 32.225 48.6878 31.9235 48.636C31.7171 48.6002 31.5222 48.5968 31.3315 48.6109C31.0719 48.6301 30.8687 48.6811 30.6901 48.7475C30.1022 48.965 29.8199 49.5524 29.6465 50.1089C29.4412 50.7912 29.372 51.4323 29.2495 51.9913C29.2314 52.076 29.21 52.1749 29.1865 52.285C29.0525 52.8685 28.9142 53.8127 28.6736 55.2509C28.5796 55.7651 28.4868 56.2564 28.3156 56.7596C28.0797 57.4642 27.5961 58.314 26.6524 58.6846C26.515 58.7389 26.3676 58.7721 26.2372 58.7921C26.07 58.8185 25.9167 58.8265 25.8412 58.8483C25.7333 58.8787 25.5917 58.9085 25.4229 58.9281C25.2202 58.9506 25.0091 58.9617 24.7551 58.9393C24.4182 58.9114 24.044 58.8137 23.7197 58.6604C21.4354 56.9186 21.7156 54.7518 21.3124 53.0472C21.1833 52.2412 21.0575 51.4597 20.8605 50.7727C20.8224 50.4089 20.7566 50.0572 20.6373 49.7606C20.4512 49.3622 20.2951 49.0925 19.6792 49.0681C19.645 49.0675 19.6086 49.0679 19.5699 49.0696C19.1153 49.0911 18.7057 49.249 18.1978 49.826C17.2005 50.9532 16.4999 53.2027 14.7054 53.8362C14.3714 53.9629 14.0103 54.0337 13.6437 54.0494C13.6267 54.0502 13.6097 54.0508 13.5926 54.0513C12.9054 54.0877 11.954 53.8443 11.2117 53.158C10.4612 52.4945 9.94627 51.5471 9.33845 50.5915C9.02799 50.1077 8.7223 49.7245 8.45198 49.5259C8.17971 49.3273 7.98016 49.2795 7.68489 49.2836C7.65832 49.2282 7.07428 49.6704 6.76841 50.1402C6.39268 50.6597 6.11076 51.1845 5.90574 51.5882C5.55519 52.2805 5.16065 53.1774 4.7719 54.112C4.46234 54.8474 4.17816 55.5752 3.82388 56.3105C3.78203 56.3962 3.7307 56.4973 3.67804 56.5943C3.62697 56.6881 3.57097 56.7871 3.49531 56.9034C3.42665 57.0066 3.33645 57.1436 3.16884 57.3109C3.10374 57.3738 2.94505 57.5281 2.68623 57.6445C2.4898 57.7579 1.85531 57.8655 1.42092 57.6121C0.723027 57.1822 0.73663 56.8333 0.658575 56.7148C0.596445 56.5498 0.562821 56.4012 0.544259 56.3184C0.501266 56.1207 0.478361 55.9443 0.46246 55.8205C0.437777 55.6189 0.421531 55.4332 0.407809 55.2489C0.393613 55.0485 0.383471 54.8679 0.374824 54.6771C0.37009 54.5704 0.365912 54.4573 0.362387 54.3365C0.332941 53.457 0.300413 52.4184 0.279114 51.0697C0.277268 50.9528 0.275507 50.833 0.273841 50.7103C0.249582 48.9369 0.267457 47.8329 0.30508 46.6902C0.320399 46.2247 0.379223 45.8149 0.439955 45.3925C0.526169 44.7929 0.615947 44.1671 0.590932 43.3209C0.585099 43.1217 0.57167 42.9172 0.557614 42.6928C0.531786 42.2876 0.50394 41.846 0.517645 41.4032C0.522423 41.2449 0.538452 41.1057 0.554156 40.9713C0.571433 40.8231 0.588312 40.6813 0.589639 40.5125C0.594581 39.9042 0.592284 39.2895 0.590325 38.7661C0.58779 38.0807 0.585916 37.4936 0.600664 37.1432C0.625346 36.5433 0.609788 35.8901 0.591852 35.2362L0.605975 35.4175C0.584298 35.2717 0.583646 35.2166 0.579382 35.1471C0.546612 34.2758 0.836225 33.5042 1.29236 32.8951C2.65732 31.1076 5.17593 30.6098 7.40902 30.4665C8.28825 30.4162 8.98898 30.4726 9.91001 30.582C10.4593 30.6498 11.1407 30.7479 11.8858 30.8699C12.3225 30.9407 12.734 30.9727 13.0623 30.9981C13.3783 31.0235 13.6793 31.0517 13.9889 31.121C14.2722 31.1841 14.407 31.2606 14.5585 31.3374C14.7226 31.4223 14.8773 31.5022 15.1596 31.5496C15.31 31.5749 15.4979 31.5884 15.7257 31.6071C15.8154 31.6144 15.9 31.6201 15.9957 31.6287C15.989 31.6373 15.986 31.6458 15.9845 31.6524C15.9745 31.6988 16.2426 31.7826 16.5125 31.8686C16.6201 31.9029 16.7282 31.9374 16.8167 31.969C17.15 32.0866 17.7681 32.2406 18.2364 32.3567C18.4369 32.4062 18.6168 32.4668 18.8292 32.539C19.0144 32.6023 19.2448 32.6797 19.4951 32.7567C19.6432 32.8019 19.7556 32.8461 19.8489 32.8829C19.9164 32.9096 19.974 32.9324 20.0288 32.9492C20.0763 32.9638 20.1185 32.9616 20.166 32.9593C20.2001 32.9576 20.2373 32.9558 20.2814 32.9601C20.3866 32.9704 20.5182 33.0014 20.6085 33.0327C20.6502 33.0471 20.6824 33.0615 20.7144 33.0757C20.7517 33.0924 20.7888 33.109 20.8418 33.1261C21.0859 33.2049 21.3302 33.2593 21.5652 33.3116C21.8288 33.3705 22.1071 33.4342 22.4125 33.5392C22.5086 33.5723 22.61 33.6126 22.7087 33.6519C22.812 33.6931 22.913 33.7334 23.0006 33.7626C23.3667 33.8845 23.6839 33.9496 23.9914 34.0157C24.1947 34.0593 24.3882 34.1017 24.5653 34.154C24.8902 34.25 25.0779 34.2714 25.2162 34.2872C25.2879 34.2954 25.3466 34.3021 25.4056 34.3177C25.4583 34.3361 25.5119 34.3551 25.5645 34.3738C25.6087 34.391 25.6544 34.4089 25.6987 34.4231C25.7022 34.4243 25.7056 34.4253 25.7091 34.4264C25.7127 34.4275 25.7162 34.4285 25.7197 34.4296C26.0105 34.5352 26.2914 34.6405 26.5672 34.7429C27.1968 34.9761 27.7466 35.1791 28.4433 35.3753C28.5877 35.4159 28.7371 35.4455 28.8879 35.4751C29.0726 35.5113 29.2598 35.5476 29.4429 35.6033C29.8706 35.7337 30.325 35.8907 30.769 36.0402C31.4336 36.2643 32.0505 36.4654 32.6848 36.5896C32.8883 36.6292 33.0863 36.6582 33.2824 36.6861C33.3916 36.7016 33.5007 36.7167 33.6095 36.7332C33.5826 36.7458 33.5666 36.7599 33.5516 36.7731C33.5206 36.8002 33.4942 36.8235 33.3852 36.8219C33.1279 36.8183 32.825 36.8249 32.8425 36.8899C32.8472 36.9075 32.8361 36.923 32.8243 36.9385C32.7945 36.9771 32.765 37.0173 32.9919 37.0946C33.1487 37.1477 33.522 37.2706 33.7975 37.3001C33.8573 37.3065 33.8958 37.3005 33.9385 37.2938C34.0152 37.2817 34.1072 37.268 34.3558 37.3165C34.3976 37.3247 34.4429 37.3337 34.4895 37.3431C34.6756 37.3805 34.8802 37.4205 34.9606 37.4144C35.0532 37.4074 35.0407 37.3736 35.0265 37.3341C35.0077 37.2827 34.9865 37.2217 35.1857 37.198C35.2252 37.1933 35.2959 37.2042 35.349 37.2123C35.3864 37.218 35.415 37.2222 35.4186 37.219C35.4227 37.2153 35.4128 37.2036 35.4002 37.1887C35.3609 37.1372 35.2615 37.0416 35.6779 37.1281C35.7892 37.1511 35.9145 37.1811 36.0258 37.2074C36.19 37.2462 36.3239 37.277 36.3441 37.2691C36.3517 37.2661 36.3574 37.2623 36.3623 37.2581C36.491 37.2856 36.6184 37.3123 36.7445 37.3383C36.8996 37.3828 37.1389 37.4274 37.4393 37.4798C37.5116 37.4924 37.5873 37.5055 37.6653 37.519C37.9227 37.5669 38.174 37.6116 38.4196 37.6533C38.632 37.6925 38.8534 37.7351 39.0808 37.7818C39.5292 37.8745 39.926 37.9709 40.3196 38.0578C40.483 38.0941 40.6421 38.1285 40.8006 38.1596C40.7382 38.1565 40.6813 38.1541 40.6372 38.1537C40.3343 38.1506 40.2025 38.1846 40.0826 38.2168C40.0024 38.2381 39.9263 38.2581 39.801 38.2622C39.5669 38.2691 39.598 38.3112 39.6069 38.3413C39.6132 38.357 39.618 38.3698 39.5893 38.3737C39.5661 38.3769 39.5137 38.3736 39.4592 38.3699C39.4116 38.3667 39.3622 38.3633 39.3302 38.3641C38.9384 38.3727 39.0487 38.4201 39.2129 38.4892C39.303 38.5271 39.4072 38.5707 39.4516 38.6182C39.4886 38.6673 39.4741 38.6792 39.27 38.6733C39.4289 38.7143 39.5659 38.7517 39.7402 38.792C39.8062 38.7973 39.8573 38.7887 39.9288 38.7729C40.0575 38.7452 40.4546 38.7673 40.7491 38.777C40.8807 38.7814 41.0222 38.786 41.0914 38.7841C41.4726 38.774 41.3626 38.722 41.2698 38.6772C41.2182 38.6523 41.1703 38.629 41.2094 38.6158C41.226 38.6102 41.2032 38.6022 41.1802 38.594C41.1624 38.5876 41.1441 38.5812 41.1437 38.5757C41.1413 38.5358 41.3664 38.521 41.5662 38.5036C41.681 38.4938 41.7881 38.4835 41.847 38.4702C41.865 38.4661 41.8792 38.4618 41.8926 38.4576C41.9122 38.4515 41.9308 38.4456 41.9608 38.4411C42.0347 38.4309 42.1852 38.4271 42.3446 38.4207C42.4265 38.4174 42.5108 38.4135 42.5894 38.4082C42.6911 38.4014 42.7267 38.386 42.7646 38.3701C42.7913 38.3588 42.8192 38.3472 42.87 38.3375C42.9561 38.32 43.1699 38.3111 43.3471 38.2996C43.4256 38.2946 43.5002 38.2892 43.5623 38.2833C43.5876 38.2809 43.5995 38.2777 43.602 38.2741C43.871 38.2503 44.1868 38.2143 44.4389 38.1757C45.7408 37.943 47.01 37.7248 48.0665 36.6417C48.25 36.4318 48.398 36.1701 48.4757 35.8866C48.5387 35.6957 48.5653 35.4405 48.5578 35.3177L48.558 35.1538C48.6366 34.5347 48.2325 33.7283 47.5687 33.2594C47.4198 33.1166 47.2115 32.9577 46.9192 32.8C46.3887 32.5145 45.7798 32.3261 45.0319 32.1852C44.4579 32.0795 43.8551 32.0087 43.1066 31.9636C41.8629 31.8917 40.5803 31.939 39.1304 32.0915C37.6773 32.2431 36.0511 32.5211 34.8903 32.7545C34.2789 32.8757 33.5723 33.0147 32.9858 33.1376C32.1196 33.3193 31.3389 33.5041 30.884 33.642C30.7361 33.6867 30.5931 33.7351 30.4528 33.7824C30.3529 33.816 30.2538 33.8493 30.1558 33.8805C29.8847 33.9501 29.6353 34.015 29.3833 34.0816C28.9373 34.1895 28.2035 34.3834 27.5202 34.5937C27.263 34.6667 27.0026 34.7418 26.7483 34.816C26.3152 34.9425 25.8812 35.072 25.4383 35.207L25.37 35.2265L25.3719 35.1582C25.3732 35.0326 25.3745 34.907 25.3757 34.7811C25.3777 34.5938 25.3795 34.4046 25.3813 34.215C25.3814 34.2132 25.3814 34.2114 25.3814 34.2096C25.3851 33.8279 25.3886 33.4433 25.3918 33.065C25.3932 32.903 25.3945 32.741 25.3958 32.579C25.3991 32.1673 25.4022 31.7526 25.405 31.3451C25.4064 31.1294 25.4078 30.9116 25.4092 30.6935C25.4113 30.3396 25.4133 29.983 25.4151 29.6282C25.4179 29.0545 25.4202 28.4835 25.422 27.9114C25.4222 27.8178 25.4225 27.7279 25.4227 27.6618C25.4229 27.5958 25.423 27.5586 25.423 27.5586C25.423 27.5586 25.423 27.5586 25.423 27.5586C25.423 27.5587 25.4229 27.5963 25.4229 27.6626C25.4229 27.7288 25.423 27.8186 25.423 27.9121C25.4232 28.4847 25.4239 29.0564 25.4252 29.6305C25.4259 29.9854 25.4269 30.3418 25.4281 30.6958C25.4289 30.914 25.4297 31.1316 25.4305 31.3474C25.4322 31.755 25.4341 32.1703 25.4363 32.5821C25.4372 32.7441 25.4381 32.9061 25.439 33.0681C25.4412 33.4474 25.4436 33.833 25.4462 34.2157C25.4463 34.2181 25.4463 34.2204 25.4463 34.2227C25.4476 34.411 25.4489 34.599 25.4503 34.785C25.4512 34.9096 25.4522 35.0339 25.4531 35.1582L25.4139 35.1295C25.856 34.9862 26.2892 34.8479 26.7214 34.712C27.0066 34.6222 27.3 34.5309 27.5872 34.4425C27.7465 34.3935 27.9258 34.3388 28.0898 34.2891C28.1806 34.2616 28.2722 34.234 28.364 34.2064C30.4101 33.591 32.526 33.0093 34.6429 32.5283C36.7635 32.0498 38.8858 31.6569 41.0714 31.4811C43.2395 31.343 45.5108 31.2609 47.619 32.298C48.6451 32.8252 49.6232 33.8907 49.5221 35.3049L49.5222 35.1682C49.6594 38.12 46.4993 39.0603 44.48 39.3123C42.2465 39.5937 40.0191 39.4256 37.8666 39.157C33.518 38.5818 29.3204 37.5056 25.1088 36.2621C21.2044 35.1078 17.3094 34.0983 13.3866 33.4948C11.4897 33.2097 9.53768 33.0173 7.70778 33.0903C5.92791 33.1417 3.96964 33.6099 3.4075 34.4747C3.32883 34.5882 3.27665 34.6997 3.24439 34.8128C3.22808 34.8702 3.21775 34.9261 3.21286 34.9787C3.20517 35.0058 3.2196 35.1525 3.20479 35.01L3.22241 35.2362C3.22292 35.2879 3.22343 35.3253 3.22393 35.3845Z" fill="black"/>
<path d="M23.3377 10.2249C23.5515 9.10243 23.9755 8.01948 23.8433 6.78432C23.8403 6.75756 23.8372 6.73072 23.8338 6.70381C23.8336 6.70229 23.8334 6.70076 23.8332 6.69924L23.0989 0.477221L26.8278 5.51195C27.8856 6.9179 29.1508 8.2588 29.9411 9.89114C30.739 11.5365 31.3877 13.2821 31.8085 15.0921C32.2279 16.9012 32.4212 18.7863 32.243 20.6458C32.0866 22.3063 31.6089 23.9321 30.8082 25.3444L30.7905 25.3785C30.6904 25.5171 30.5911 25.6653 30.4933 25.8159C29.8606 26.7987 29.2816 27.8384 28.7088 28.8701C28.4577 29.3231 28.2087 29.7786 27.954 30.2272C27.76 30.564 27.5725 30.9027 27.3405 31.2111C27.3077 31.2532 27.2747 31.2912 27.2468 31.3195C27.2185 31.3479 27.2047 31.3582 27.2047 31.3584C27.2048 31.3581 27.2186 31.3477 27.2462 31.3183C27.2733 31.2894 27.3049 31.2499 27.3361 31.207C27.5589 30.8895 27.7307 30.5386 27.9028 30.1884C28.0896 29.8017 28.2666 29.4044 28.4365 29.0084C28.4984 28.9636 28.5657 28.8918 28.6544 28.741C28.7 28.6632 28.7597 28.5484 28.7936 28.4578C28.8242 28.3764 28.8388 28.312 28.8524 28.25C28.8665 28.1852 28.8792 28.1232 28.9072 28.0494C28.9548 27.9241 28.9866 27.7982 29.0174 27.665C29.0286 27.6166 29.0398 27.567 29.0518 27.5161C29.2058 27.1319 29.3581 26.7459 29.5116 26.3606C29.5843 26.2156 29.6504 26.0851 29.6993 25.9698C29.743 25.8665 29.7711 25.7647 29.7949 25.6607C29.8205 25.5993 29.8446 25.5411 29.87 25.4808C29.942 25.3106 30.0159 25.1402 30.0952 24.9706L30.0743 25.0108C30.1467 24.7976 30.2097 24.5841 30.2641 24.3706C30.3787 24.0853 30.4889 23.7858 30.5848 23.3782C30.6255 23.2034 30.6718 23.0321 30.7133 22.8657C30.7745 22.6204 30.8252 22.3863 30.8259 22.1756C30.8263 22.035 30.8535 21.8908 30.8787 21.7455C30.9123 21.551 30.9428 21.3539 30.8919 21.1736C30.8598 21.0605 30.8184 20.9572 30.7782 20.8624C30.7144 20.7115 30.6538 20.582 30.6415 20.4647C30.6185 20.2438 30.5539 20.0547 30.493 19.8906C30.4198 19.6932 30.352 19.5312 30.3726 19.3793C30.3757 19.3562 30.3805 19.3297 30.386 19.2997C30.4142 19.1428 30.462 18.885 30.3388 18.5443C30.2947 18.4235 30.2222 18.3159 30.1494 18.2121C30.0434 18.0605 29.9365 17.9179 29.9183 17.7432C29.9157 17.7171 29.9265 17.6866 29.9364 17.6588C29.949 17.6234 29.96 17.5924 29.9393 17.5804C29.8788 17.5453 29.805 17.4847 29.7236 17.4204C29.6638 17.3731 29.5999 17.3236 29.5348 17.28C29.3702 16.8604 29.1907 16.4464 28.9992 16.0367C28.9114 15.8492 28.8213 15.6627 28.7286 15.4768C28.762 15.3519 28.7867 15.2264 28.7921 15.101C28.7989 14.937 28.7402 14.7481 28.6614 14.5071C28.6035 14.3297 28.5335 14.1211 28.4706 13.8715C28.3535 13.4063 28.1101 12.98 27.9157 12.7304C27.8748 12.6778 27.8326 12.6247 27.7868 12.5679C27.6134 12.354 27.3974 12.0883 27.0138 11.5761C26.6505 11.0926 26.3622 10.6677 26.1435 10.351C26.0345 10.1936 25.9366 10.0533 25.8601 9.95628C25.7304 9.79178 25.5657 9.57363 25.4076 9.37003C25.1515 9.03769 24.8939 8.71525 24.7296 8.54293C24.6703 8.48029 24.6067 8.41713 24.5393 8.35066C24.3651 8.17847 24.1515 7.96735 23.8996 7.68061L27.4519 6.27219C27.4523 6.27419 27.4527 6.27619 27.453 6.2782C27.4598 6.31488 27.4664 6.35227 27.4729 6.39036C27.5648 6.94645 27.5551 7.28315 27.5141 7.65035C27.4966 7.79713 27.4187 7.92551 27.3367 8.05387C27.2199 8.23619 27.0955 8.43066 27.114 8.689C27.1182 8.74971 27.1319 8.81498 27.1457 8.88328C27.1712 9.00653 27.196 9.15012 27.1632 9.2869C27.1517 9.33474 27.1258 9.37495 27.1002 9.414C27.072 9.45698 27.0443 9.49865 27.0362 9.54857C27.0059 9.73427 26.9814 9.91633 26.956 10.0804C26.9236 10.2906 26.8909 10.4637 26.8492 10.5659C26.7746 10.7493 26.7503 10.9654 26.7204 11.1798C26.6978 11.343 26.6709 11.5102 26.6168 11.6634C26.4644 12.0984 26.2938 12.703 26.0971 13.323C26.024 13.5552 25.8889 13.7226 25.7158 13.9264C25.6081 14.0529 25.4844 14.1949 25.3467 14.3767C25.2688 14.4794 25.2499 14.5907 25.2313 14.6936C25.2143 14.7882 25.1967 14.8771 25.1361 14.9425C25.0824 15.0004 24.9996 15.0086 24.9213 15.0161C24.8342 15.0244 24.7527 15.0318 24.7218 15.1051C24.7053 15.1442 24.7066 15.2035 24.707 15.2751C24.7072 15.3034 24.7072 15.3335 24.7062 15.3647C24.6956 15.3567 24.6856 15.3503 24.678 15.3457C24.6236 15.3132 24.5513 15.3641 24.4807 15.4132C24.4525 15.4328 24.4245 15.4523 24.398 15.4662C24.3005 15.5175 24.1969 15.6594 24.1231 15.774C24.0921 15.8222 24.0468 15.8549 23.9942 15.8928C23.9474 15.9265 23.8948 15.9642 23.841 16.0203C23.8103 16.0522 23.7765 16.0701 23.7485 16.0848C23.7283 16.0954 23.711 16.1044 23.7001 16.116C23.6908 16.126 23.6993 16.1447 23.7089 16.1657C23.7158 16.1808 23.7233 16.1972 23.725 16.2125C23.7291 16.2491 23.7143 16.2832 23.6932 16.3001C23.6835 16.3079 23.6724 16.3119 23.6614 16.3159C23.6486 16.3205 23.6359 16.325 23.6251 16.3357C23.5757 16.3846 23.5549 16.4496 23.5331 16.5167C23.5091 16.5906 23.4841 16.6667 23.4195 16.7283C23.3991 16.7477 23.3717 16.7648 23.3453 16.7812C23.3176 16.7984 23.2909 16.8151 23.2742 16.8332C23.2063 16.9067 23.1888 17.0056 23.1724 17.0959C23.1616 17.156 23.1514 17.212 23.1274 17.2553C23.0833 17.3349 23.0974 17.4018 23.1076 17.4511C23.113 17.4767 23.1174 17.4975 23.1122 17.5129C23.1026 17.5239 23.0927 17.5348 23.0828 17.5455C23.0721 17.5541 23.061 17.5631 23.0546 17.574C23.0541 17.5749 23.0537 17.5758 23.0532 17.5766C22.9965 17.6349 22.9367 17.689 22.8776 17.7426C22.7441 17.8643 22.6136 17.9855 22.5293 18.1435C22.5111 18.1777 22.506 18.2202 22.5001 18.2643C22.4931 18.318 22.486 18.3727 22.4556 18.4136C22.3831 18.5112 22.2872 18.5944 22.1945 18.6768C22.0535 18.8028 21.9196 18.9281 21.8796 19.0865C21.8665 19.1384 21.863 19.1961 21.8604 19.2525C21.8589 19.2841 21.8576 19.3157 21.8545 19.3464C21.8357 19.3295 21.8168 19.3157 21.7991 19.3028C21.7627 19.2762 21.7315 19.2534 21.7171 19.2139C21.683 19.1207 21.6284 19.0033 21.5555 18.9727C21.5357 18.9644 21.516 18.9513 21.4962 18.9381C21.4465 18.9048 21.3956 18.8705 21.3396 18.9124C21.3018 18.9406 21.2102 19.0167 21.2166 19.0987C21.2179 19.1166 21.2307 19.1337 21.2449 19.1526C21.2704 19.1867 21.3004 19.2269 21.2786 19.2884C21.2749 19.2988 21.2707 19.3099 21.2661 19.3213C21.2481 19.3666 21.228 19.418 21.2458 19.4499C21.2664 19.4864 21.3052 19.4999 21.3503 19.5158C21.4092 19.5364 21.4791 19.5616 21.5341 19.6436C21.5449 19.6598 21.5412 19.6787 21.5385 19.6929C21.5366 19.7029 21.5352 19.7106 21.5395 19.7135C21.5445 19.7169 21.5573 19.7196 21.5734 19.723C21.6305 19.7349 21.7297 19.757 21.684 19.8459C21.6717 19.87 21.6525 19.895 21.6354 19.9174C21.6102 19.9505 21.5896 19.978 21.6017 19.9885C21.6064 19.9925 21.6117 19.9962 21.6173 19.9998C21.6002 20.0273 21.5833 20.0547 21.5666 20.0822C21.5303 20.1109 21.5046 20.1636 21.474 20.2285C21.4666 20.2443 21.4588 20.2609 21.4505 20.2781C21.4189 20.333 21.3881 20.388 21.3581 20.443C21.3299 20.4848 21.2963 20.5281 21.2552 20.5726C21.173 20.6615 21.0752 20.7309 20.9819 20.8021C20.9425 20.8322 20.904 20.8622 20.8678 20.8945C20.8703 20.8787 20.8718 20.864 20.871 20.8523C20.8654 20.7716 20.8151 20.7234 20.7685 20.6784C20.7376 20.6485 20.7084 20.6199 20.696 20.5839C20.6734 20.5178 20.6225 20.5061 20.5848 20.4979C20.5653 20.4937 20.5493 20.4901 20.5428 20.4798C20.5375 20.4716 20.5389 20.4571 20.5404 20.4421C20.5417 20.429 20.543 20.4155 20.54 20.4055C20.5041 20.2839 20.4515 20.2969 20.3751 20.3191C20.333 20.3312 20.2839 20.3458 20.2261 20.3408C20.166 20.3328 20.1506 20.3236 20.1465 20.262C20.1043 20.2942 20.0625 20.327 20.0211 20.3604C20.0176 20.3777 20.031 20.3961 20.0543 20.4231C20.0958 20.4715 20.083 20.579 20.0748 20.6635C20.0709 20.7027 20.0679 20.7367 20.0707 20.7571C20.0861 20.8657 20.1519 20.8521 20.2098 20.8417C20.2416 20.8359 20.2712 20.8309 20.2885 20.8458C20.2959 20.8521 20.3061 20.8487 20.3164 20.8452C20.3244 20.8426 20.3326 20.8399 20.3397 20.8416C20.391 20.8545 20.4126 20.9192 20.4335 20.9781C20.4454 21.0119 20.457 21.0438 20.4731 21.0637C20.478 21.0698 20.4833 21.0749 20.4884 21.0798C20.496 21.0869 20.5031 21.0938 20.5083 21.103C20.5202 21.1241 20.5217 21.1619 20.5237 21.2031C20.5247 21.2242 20.5259 21.2463 20.5286 21.2673C20.5321 21.2946 20.5498 21.3077 20.5682 21.3215C20.5812 21.3312 20.5946 21.3413 20.6038 21.3566C20.6206 21.3843 20.6172 21.4325 20.6147 21.4772C20.6136 21.4967 20.6127 21.5155 20.6135 21.5316C20.6138 21.5382 20.6165 21.5417 20.621 21.5432C20.6209 21.6169 20.623 21.6871 20.6261 21.7553C20.6451 22.0957 20.67 22.3713 20.6251 22.8061C20.6172 22.8871 20.6217 22.9747 20.6333 23.0633C20.6325 23.3535 20.6557 23.6442 20.7007 23.9353C20.6776 24.0016 20.6648 24.0803 20.6643 24.1716C20.6647 24.346 20.7041 24.5079 20.7593 24.7001C20.788 24.7991 20.8216 24.9072 20.8596 25.0304L20.8409 24.9945C20.8628 25.0461 20.8867 25.1038 20.9108 25.165C21.0356 25.4888 21.1682 25.8203 21.3308 26.1816C21.4923 26.5409 21.6825 26.9504 21.8198 27.238C21.8949 27.3956 21.9579 27.568 22.019 27.7276C22.1048 27.9529 22.1869 28.1518 22.2693 28.2563C22.2956 28.2896 22.3264 28.3188 22.3559 28.3475C22.3769 28.368 22.3975 28.3885 22.4155 28.4095C22.445 28.4756 22.4746 28.5412 22.5044 28.6068C22.5466 28.73 22.6233 28.9152 22.7221 29.0792C22.7539 29.1468 22.7861 29.2147 22.8167 29.2791C22.8845 29.421 22.9509 29.5579 23.0204 29.6976C23.0428 29.7429 23.0649 29.7871 23.0886 29.834C23.0888 29.8344 23.089 29.8349 23.0893 29.8353C23.1362 29.9282 23.1825 30.0188 23.2304 30.1103C23.2509 30.1494 23.2698 30.1856 23.2911 30.2256C23.3443 30.3253 23.3968 30.422 23.4508 30.5182C23.4779 30.5668 23.5088 30.6209 23.5379 30.6711C23.5837 30.7501 23.6354 30.8363 23.686 30.9166C23.7665 31.0438 23.8547 31.1782 23.9548 31.2923C23.9691 31.3086 23.9906 31.3307 24.0021 31.3414C24.0145 31.3531 24.021 31.3584 24.0211 31.3584C24.0211 31.3584 24.0211 31.3584 24.0211 31.3584C24.0211 31.3584 24.0211 31.3584 24.0211 31.3584C24.021 31.3584 24.0144 31.3531 24.0018 31.3415C23.99 31.3309 23.9682 31.309 23.9536 31.2931C23.8514 31.1804 23.7598 31.0481 23.6744 30.9235C23.621 30.8449 23.5659 30.7608 23.5162 30.6839C23.4846 30.635 23.4512 30.5825 23.4213 30.5354C23.3621 30.4419 23.3037 30.3484 23.2441 30.2521C23.2203 30.2136 23.1986 30.1786 23.1755 30.1411C23.1211 30.0527 23.0677 29.9656 23.0132 29.8764C23.0129 29.8759 23.0125 29.8753 23.0122 29.8748C22.985 29.8301 22.9594 29.7883 22.9332 29.7454C22.8518 29.6118 22.7725 29.4816 22.6907 29.347C22.6488 29.2784 22.6041 29.2046 22.5607 29.1334C22.5365 29.0938 22.5122 29.054 22.4883 29.0147C22.4752 28.9932 22.4619 28.9714 22.4486 28.9494C22.1437 28.4497 21.8377 27.9532 21.5246 27.4558C21.2128 26.9612 20.895 26.4654 20.5707 25.9829C20.4365 25.7838 20.2994 25.5836 20.1611 25.3933L20.142 25.3565C19.9587 25.0309 19.8037 24.7239 19.6602 24.3752C17.8471 20.3358 21.0864 16.2686 22.3269 13.2968C22.5267 12.8489 22.7115 12.3944 22.8653 11.9539C23.0213 11.5086 23.1485 11.075 23.2504 10.636C23.2816 10.5011 23.3107 10.3648 23.3377 10.2249Z" fill="#FF9900"/>
</svg>
